# Blender v2.91.2 OBJ File: ''
# www.blender.org
mtllib reticle.mtl
o Circle_Circle.001
v 0.215882 -0.060000 -1.246625
v -0.469905 -0.060000 -0.606658
v -0.503328 0.060000 -0.579229
v -0.779281 0.060000 -0.984261
v -0.634424 -0.060000 -1.110489
v -1.156468 0.060000 -0.513088
v -0.761245 -0.060000 -0.096699
v -0.765483 0.060000 -0.053670
v -1.180554 -0.060000 -0.454940
v -1.233840 0.060000 0.336628
v -0.566263 -0.060000 0.533401
v -0.533402 0.060000 0.566263
v -1.212921 -0.060000 0.405587
v -0.634424 0.060000 1.110489
v -0.570871 -0.060000 1.144459
v 0.053670 -0.060000 0.765483
v 0.096700 0.060000 0.761245
v 0.215883 0.060000 1.246625
v 0.277613 -0.060000 1.234346
v 0.523253 -0.060000 0.549955
v 0.659444 0.060000 0.412680
v 0.779282 0.060000 0.984260
v 0.813318 -0.060000 0.956327
v 1.156469 0.060000 0.513087
v 0.761245 -0.060000 0.096699
v 1.180555 -0.060000 0.454939
v 0.709498 0.060000 -0.319035
v 1.246624 0.060000 -0.215884
v 1.234346 -0.060000 -0.277614
v 0.641469 -0.060000 -0.405908
v 0.984260 0.060000 -0.779282
v 0.872087 -0.060000 -0.916594
v 0.174488 -0.060000 -0.758106
v 0.128908 0.060000 -0.767172
v 0.611119 0.060000 -1.096623
v -0.089451 0.060000 -1.275804
vn 0.0000 -1.0000 0.0000
vn 0.0000 1.0000 0.0000
vn -0.3483 0.4465 -0.8242
vn 0.2569 0.0106 0.9664
vn -0.8003 0.4276 -0.4202
vn -0.9082 0.3582 0.2164
vn 0.6261 0.2571 -0.7362
vn 0.2305 0.3673 -0.9011
vn -0.1330 -0.5405 -0.8308
vn -0.7570 -0.2050 -0.6204
vn 0.8819 0.0000 0.4714
vn -0.9977 -0.0207 -0.0640
vn 0.9462 -0.0106 -0.3233
vn -0.7730 0.0000 0.6344
vn 0.3233 0.0106 -0.9462
vn -0.1319 0.0207 0.9911
vn -0.4735 -0.1574 -0.8666
vn 0.4411 0.0257 0.8971
vn 0.7938 -0.0257 0.6076
vn -0.8301 -0.5547 -0.0568
vn 0.9952 0.0000 0.0980
vn 0.8847 -0.0776 -0.4596
vn -0.5952 -0.1969 0.7791
vn 0.4223 -0.3413 -0.8397
usemtl Material.001
s off
f 33//1 5//1 1//1
f 36//2 3//2 34//2
f 5//3 4//3 36//3
f 5//1 2//1 9//1
f 3//2 6//2 8//2
f 7//1 13//1 9//1
f 2//4 33//4 34//4 3//4
f 8//2 10//2 12//2
f 11//1 15//1 13//1
f 14//2 17//2 12//2
f 15//1 16//1 19//1
f 20//1 26//1 23//1
f 21//5 25//5 20//5
f 26//1 25//1 29//1
f 27//6 30//6 25//6
f 30//1 32//1 29//1
f 32//7 35//7 31//7
f 32//1 33//1 1//1
f 1//8 36//8 35//8
f 1//9 5//9 36//9
f 5//1 33//1 2//1
f 6//10 4//10 5//10 9//10
f 36//2 4//2 3//2
f 4//2 6//2 3//2
f 7//11 2//11 3//11 8//11
f 2//1 7//1 9//1
f 10//12 6//12 9//12 13//12
f 6//2 10//2 8//2
f 11//13 7//13 8//13 12//13
f 7//1 11//1 13//1
f 14//14 10//14 13//14 15//14
f 12//2 10//2 14//2
f 16//15 11//15 12//15 17//15
f 11//1 16//1 15//1
f 18//16 14//16 15//16 19//16
f 14//2 18//2 17//2
f 20//1 23//1 19//1 16//1
f 20//17 16//17 17//17 21//17
f 21//2 17//2 18//2 22//2
f 22//18 18//18 19//18 23//18
f 24//19 22//19 23//19 26//19
f 22//2 24//2 21//2
f 27//2 21//2 24//2 28//2
f 20//1 25//1 26//1
f 21//20 27//20 25//20
f 28//21 24//21 26//21 29//21
f 31//22 28//22 29//22 32//22
f 25//1 30//1 29//1
f 27//2 28//2 31//2
f 33//23 30//23 27//23 34//23
f 32//1 30//1 33//1
f 34//2 27//2 31//2 35//2
f 32//24 1//24 35//24
f 34//2 35//2 36//2
